<svg xmlns="http://www.w3.org/2000/svg" xml:space="preserve" viewBox="0 0 720 720"><path fill="#21719C" d="M165.243 223.569c4.189-31.043 7.558-39.939 27.54-64.55 0 0 49.949-62.3 210.646-21.064 56.038 11.636 73.617 15.867 102.14 11.661 63.342-9.404 94.232-68.897 107.628-136.535-18.623 38.304-55.825 105.426-156.14 75.876 0 0-179.995-70.513-298.963-24.62 0 0-72.402 20.555-94.473 108.683 0 0-67.16 241.054 237.8 330.756 0 0 65.008 19.156 105.582-7.121 11.143-6.622 13.809-14.642 16.933-22.938 25.058-72.343-273.455-117.57-258.693-250.148z"/><path fill="#249ED5" d="M554.713 492.582c-4.131 31.05-9.597 45.034-27.51 64.424 0 0-50.003 62.275-210.672 21.18-55.992-11.618-73.56-15.84-102.09-11.636-63.339 9.396-94.228 68.897-107.658 136.386 18.6-38.17 53.916-104.77 156.146-75.876 0 0 179.96 70.638 298.932 24.753 0 0 72.403-20.563 94.532-108.675 0 0 67.107-241.062-237.913-330.781 0 0-64.919-19.265-105.52 7.138-8.423 6.738-13.813 14.642-16.913 22.813-25.058 72.328 273.434 117.695 258.666 250.274z"/><path fill="#21719C" d="M165.243 224.65c-27.82-34.49-51.922-72.236-72.19-112.914-12.107 15.55-22.949 35.406-29.432 61.284 0 0-67.16 241.054 237.8 330.756 0 0 65.008 19.156 105.582-7.121 11.143-6.622 13.809-14.642 16.933-22.938 25.006-72.087-271.567-117.287-258.693-249.066z"/><path fill="#249ED5" d="M544.676 442.85c8.047 15.117 12.027 31.608 10.037 49.732-4.131 31.05-9.597 45.034-27.51 64.424 0 0-50.003 62.275-210.672 21.18-55.992-11.618-73.56-15.84-102.09-11.636-63.339 9.396-94.228 68.897-107.658 136.386 18.6-38.17 53.916-104.77 156.146-75.876 0 0 179.96 70.638 298.932 24.753 0 0 72.403-20.563 94.532-108.675 0 0 13.111-47.241 1.31-107.658-36.623 8.87-74.703 10.794-113.027 7.37z"/></svg>
